#!OML:ASF F:\VICON\USERDATA\INSTALL\rory3\rory3.ASF
:FULLY-SPECIFIED
:DEGREES
304
root 0.650248 18.4808 -1.5536 1.26965 0.498024 1.7738
lowerback 9.75619 1.06807 -1.85792
upperback 0.864974 1.18465 -0.682873
thorax -4.59418 0.614985 0.174636
lowerneck -11.8779 -2.22253 -6.97709
upperneck 4.38155 -2.44442 7.16956
head 3.40558 -0.996488 3.16863
rclavicle -1.33403e-014 -4.82053e-015
rhumerus -26.3108 -1.71595 -79.0096
rradius 31.1473
rwrist 14.6245
rhand -22.7946 -2.67495
rfingers 7.12502
rthumb 3.64149 -32.6236
lclavicle -1.33403e-014 -4.82053e-015
lhumerus -35.7783 9.26405 74.722
lradius 25.0498
lwrist -4.6941
lhand -22.016 23.6198
lfingers 7.12502
lthumb 4.39337 53.5542
rfemur -8.17795 12.7245 18.2986
rtibia 33.1309
rfoot -23.6364 -18.6808
rtoes -3.62725
lfemur -9.32539 -0.431793 -21.3178
ltibia 31.9508
lfoot -19.1529 9.0613
ltoes -8.46785
305
root 0.647214 18.5024 -1.54989 1.28272 0.466012 1.8422
lowerback 9.51013 1.07676 -1.94588
upperback 0.785653 1.18913 -0.745339
thorax -4.54006 0.618558 0.16213
lowerneck -11.7285 -2.22304 -7.08089
upperneck 4.47191 -2.45652 7.3485
head 3.41387 -0.998528 3.24095
rclavicle 1.26477e-014 -1.11816e-014
rhumerus -26.569 -1.9222 -79.0135
rradius 30.9233
rwrist 14.7304
rhand -22.869 -1.75775
rfingers 7.12502
rthumb 3.56958 -31.7076
lclavicle 1.26477e-014 -1.11816e-014
lhumerus -35.6849 9.1296 74.7739
lradius 25.0251
lwrist -4.41885
lhand -22.4121 23.1071
lfingers 7.12502
lthumb 4.01081 53.0491
rfemur -7.80655 12.8548 18.2644
rtibia 32.478
rfoot -23.4459 -18.8465
rtoes -3.67225
lfemur -8.93274 -0.657506 -21.4324
ltibia 31.2397
lfoot -19.0101 9.37639
ltoes -8.3917
306
root 0.641921 18.5207 -1.54565 1.23491 0.48102 1.84122
lowerback 9.34708 1.0456 -2.02024
upperback 0.715372 1.14353 -0.740735
thorax -4.52297 0.59787 0.21688
lowerneck -11.6358 -2.17628 -7.19783
upperneck 4.59638 -2.39373 7.42629
head 3.4345 -0.967519 3.28894
rclavicle -1.1045e-014 4.42296e-015
rhumerus -26.7322 -2.0168 -78.9821
rradius 30.6201
rwrist 14.8699
rhand -22.8667 -1.22946
rfingers 7.12502
rthumb 3.57179 -31.1793
lclavicle -1.1045e-014 4.42296e-015
lhumerus -35.6652 9.10798 74.8121
lradius 25.0946
lwrist -4.32209
lhand -22.4603 23.1325
lfingers 7.12502
lthumb 3.96425 53.0754
rfemur -7.32746 12.9593 18.3335
rtibia 31.7865
rfoot -23.2432 -18.9648
rtoes -3.55036
lfemur -8.50548 -0.852957 -21.4451
ltibia 30.5732
lfoot -18.8743 9.59478
ltoes -8.29301
307
root 0.634865 18.5404 -1.54547 1.22741 0.449785 1.63221
lowerback 9.2088 1.02764 -1.89079
upperback 0.62561 1.13747 -0.698772
thorax -4.53738 0.593348 0.189941
lowerneck -11.5835 -2.16206 -7.20347
upperneck 4.72084 -2.38284 7.42617
head 3.46298 -0.963021 3.29098
rclavicle -2.48481e-015 7.95139e-016
rhumerus -26.9501 -2.14697 -78.9516
rradius 30.4474
rwrist 15.1659
rhand -22.6672 -1.51596
rfingers 7.12502
rthumb 3.7645 -31.4625
lclavicle -2.48481e-015 7.95139e-016
lhumerus -35.619 9.09882 74.8525
lradius 25.2376
lwrist -4.18146
lhand -22.1862 23.5564
lfingers 7.12502
lthumb 4.229 53.4941
rfemur -6.92683 13.1378 18.627
rtibia 31.0662
rfoot -23.0593 -19.092
rtoes -3.18213
lfemur -8.17712 -1.03885 -21.2218
ltibia 29.9771
lfoot -18.7295 9.86448
ltoes -8.18739
308
root 0.626665 18.5613 -1.54901 1.3025 0.39871 1.46582
lowerback 9.00752 1.02052 -1.82762
upperback 0.539899 1.14023 -0.660721
thorax -4.51363 0.594207 0.196202
lowerneck -11.6808 -2.19836 -7.26558
upperneck 4.94145 -2.43005 7.47595
head 3.55054 -0.982897 3.3135
rclavicle -2.30404e-014 2.95195e-014
rhumerus -27.1505 -2.33911 -78.9063
rradius 30.3045
rwrist 15.4985
rhand -22.3907 -1.75889
rfingers 7.12502
rthumb 4.03147 -31.7005
lclavicle -2.30404e-014 2.95195e-014
lhumerus -35.4973 9.19043 74.8809
lradius 25.3383
lwrist -3.84691
lhand -22.2569 24.2128
lfingers 7.12502
lthumb 4.16065 54.1519
rfemur -6.6583 13.3768 18.8605
rtibia 30.3583
rfoot -22.8652 -19.27
rtoes -2.78718
lfemur -7.99834 -1.20469 -21.0371
ltibia 29.4582
lfoot -18.5847 10.1034
ltoes -8.03015
309
root 0.615081 18.5794 -1.55949 1.36345 0.556717 1.3643
lowerback 8.88809 0.972131 -1.85299
upperback 0.458906 1.07642 -0.634882
thorax -4.531 0.564012 0.24656
lowerneck -11.7895 -2.23948 -7.31175
upperneck 5.17205 -2.48594 7.52546
head 3.64357 -1.00647 3.33272
rclavicle 1.86733e-014 -1.73937e-014
rhumerus -27.3251 -2.55011 -78.88
rradius 30.1036
rwrist 15.6926
rhand -22.171 -1.99212
rfingers 7.12502
rthumb 4.24366 -31.9296
lclavicle 1.86733e-014 -1.73937e-014
lhumerus -35.3128 9.34464 74.8545
lradius 25.4059
lwrist -3.85617
lhand -21.9575 25.0757
lfingers 7.12502
lthumb 4.44985 55.009
rfemur -6.33948 13.5374 19.0544
rtibia 29.6585
rfoot -22.7208 -19.5676
rtoes -2.34034
lfemur -7.83853 -1.42027 -20.8927
ltibia 28.9308
lfoot -18.3513 10.2435
ltoes -8.39181
